<?xml version="1.0" encoding="UTF-8" standalone="no"?>
<!DOCTYPE svg PUBLIC "-//W3C//DTD SVG 1.1//EN"
 "http://www.w3.org/Graphics/SVG/1.1/DTD/svg11.dtd">
<!-- Generated by graphviz version 2.40.1 (20161225.0304)
 -->
<!-- Title: dependencies Pages: 1 -->
<svg width="6231pt" height="211pt"
 viewBox="0.00 0.00 6231.00 211.00" xmlns="http://www.w3.org/2000/svg" xmlns:xlink="http://www.w3.org/1999/xlink">
<g id="graph0" class="graph" transform="scale(1 1) rotate(0) translate(4 207)">
<title>dependencies</title>
<polygon fill="#ffffff" stroke="transparent" points="-4,4 -4,-207 6227,-207 6227,4 -4,4"/>
<text text-anchor="start" x="3090.5091" y="-42.4" font-family="sans-serif" font-weight="bold" font-size="14.00" fill="#000000">Legend</text>
<polygon fill="#ffffb3" stroke="transparent" points="2877.5,-10 2877.5,-30 2897.5,-30 2897.5,-10 2877.5,-10"/>
<text text-anchor="start" x="2901.129" y="-15.4" font-family="sans-serif" font-size="14.00" fill="#000000"> &#160;Declarations</text>
<polygon fill="#8dd3c7" stroke="transparent" points="2990.5,-10 2990.5,-30 3010.5,-30 3010.5,-10 2990.5,-10"/>
<text text-anchor="start" x="3014.2251" y="-15.4" font-family="sans-serif" font-size="14.00" fill="#000000"> &#160;Module</text>
<polygon fill="#80b1d3" stroke="transparent" points="3076.5,-10 3076.5,-30 3096.5,-30 3096.5,-10 3076.5,-10"/>
<text text-anchor="start" x="3100.2812" y="-15.4" font-family="sans-serif" font-size="14.00" fill="#000000"> &#160;Bootstrap</text>
<polygon fill="#fdb462" stroke="transparent" points="3173.5,-10 3173.5,-30 3193.5,-30 3193.5,-10 3173.5,-10"/>
<text text-anchor="start" x="3197.1732" y="-15.4" font-family="sans-serif" font-size="14.00" fill="#000000"> &#160;Providers</text>
<polygon fill="#fb8072" stroke="transparent" points="3269.5,-10 3269.5,-30 3289.5,-30 3289.5,-10 3269.5,-10"/>
<text text-anchor="start" x="3293.2258" y="-15.4" font-family="sans-serif" font-size="14.00" fill="#000000"> &#160;Exports</text>
<g id="clust1" class="cluster">
<title>cluster_StreamsModule</title>
<polygon fill="none" stroke="#000000" stroke-dasharray="1,5" points="8,-70 8,-195 6215,-195 6215,-70 8,-70"/>
</g>
<g id="clust2" class="cluster">
<title>cluster_StreamsModule_declarations</title>
<polygon fill="none" stroke="#000000" points="1587,-78 1587,-130 6207,-130 6207,-78 1587,-78"/>
</g>
<g id="clust26" class="cluster">
<title>cluster_StreamsModule_imports</title>
<polygon fill="none" stroke="#000000" points="1084,-78 1084,-130 1579,-130 1579,-78 1084,-78"/>
</g>
<g id="clust29" class="cluster">
<title>cluster_StreamsModule_providers</title>
<polygon fill="none" stroke="#000000" points="16,-78 16,-130 1076,-130 1076,-78 16,-78"/>
</g>
<!-- StreamsComponent -->
<g id="node1" class="node">
<title>StreamsComponent</title>
<polygon fill="#ffffb3" stroke="#000000" points="6199.4313,-122 6072.5687,-122 6072.5687,-86 6199.4313,-86 6199.4313,-122"/>
<text text-anchor="middle" x="6136" y="-99.8" font-family="Times,serif" font-size="14.00" fill="#000000">StreamsComponent</text>
</g>
<!-- StreamsModule -->
<g id="node24" class="node">
<title>StreamsModule</title>
<polygon fill="#8dd3c7" stroke="#000000" points="2934.1486,-187 2931.1486,-191 2910.1486,-191 2907.1486,-187 2829.8514,-187 2829.8514,-151 2934.1486,-151 2934.1486,-187"/>
<text text-anchor="middle" x="2882" y="-164.8" font-family="Times,serif" font-size="14.00" fill="#000000">StreamsModule</text>
</g>
<!-- StreamsComponent&#45;&gt;StreamsModule -->
<g id="edge1" class="edge">
<title>StreamsComponent&#45;&gt;StreamsModule</title>
<path fill="none" stroke="#000000" d="M6136,-122.3802C6136,-146.2785 6136,-185 6136,-185 6136,-185 2944.4306,-185 2944.4306,-185"/>
<polygon fill="#000000" stroke="#000000" points="2944.4306,-181.5001 2934.4306,-185 2944.4305,-188.5001 2944.4306,-181.5001"/>
</g>
<!-- StreamCreateComponent -->
<g id="node2" class="node">
<title>StreamCreateComponent</title>
<polygon fill="#ffffb3" stroke="#000000" points="6054.5183,-122 5897.4817,-122 5897.4817,-86 6054.5183,-86 6054.5183,-122"/>
<text text-anchor="middle" x="5976" y="-99.8" font-family="Times,serif" font-size="14.00" fill="#000000">StreamCreateComponent</text>
</g>
<!-- StreamCreateComponent&#45;&gt;StreamsModule -->
<g id="edge2" class="edge">
<title>StreamCreateComponent&#45;&gt;StreamsModule</title>
<path fill="none" stroke="#000000" d="M5976,-122.3228C5976,-145.6602 5976,-183 5976,-183 5976,-183 2944.404,-183 2944.404,-183"/>
<polygon fill="#000000" stroke="#000000" points="2944.404,-179.5001 2934.404,-183 2944.4039,-186.5001 2944.404,-179.5001"/>
</g>
<!-- StreamComponent -->
<g id="node3" class="node">
<title>StreamComponent</title>
<polygon fill="#ffffb3" stroke="#000000" points="5879.486,-122 5758.514,-122 5758.514,-86 5879.486,-86 5879.486,-122"/>
<text text-anchor="middle" x="5819" y="-99.8" font-family="Times,serif" font-size="14.00" fill="#000000">StreamComponent</text>
</g>
<!-- StreamComponent&#45;&gt;StreamsModule -->
<g id="edge3" class="edge">
<title>StreamComponent&#45;&gt;StreamsModule</title>
<path fill="none" stroke="#000000" d="M5819,-122.2479C5819,-145.0179 5819,-181 5819,-181 5819,-181 2944.2236,-181 2944.2236,-181"/>
<polygon fill="#000000" stroke="#000000" points="2944.2237,-177.5001 2934.2236,-181 2944.2236,-184.5001 2944.2237,-177.5001"/>
</g>
<!-- StreamDeployComponent -->
<g id="node4" class="node">
<title>StreamDeployComponent</title>
<polygon fill="#ffffb3" stroke="#000000" points="5740.1979,-122 5577.8021,-122 5577.8021,-86 5740.1979,-86 5740.1979,-122"/>
<text text-anchor="middle" x="5659" y="-99.8" font-family="Times,serif" font-size="14.00" fill="#000000">StreamDeployComponent</text>
</g>
<!-- StreamDeployComponent&#45;&gt;StreamsModule -->
<g id="edge4" class="edge">
<title>StreamDeployComponent&#45;&gt;StreamsModule</title>
<path fill="none" stroke="#000000" d="M5659,-122.1554C5659,-144.3519 5659,-179 5659,-179 5659,-179 2944.3836,-179 2944.3836,-179"/>
<polygon fill="#000000" stroke="#000000" points="2944.3836,-175.5001 2934.3836,-179 2944.3835,-182.5001 2944.3836,-175.5001"/>
</g>
<!-- StreamCreateDialogComponent -->
<g id="node5" class="node">
<title>StreamCreateDialogComponent</title>
<polygon fill="#ffffb3" stroke="#000000" points="5559.6204,-122 5364.3796,-122 5364.3796,-86 5559.6204,-86 5559.6204,-122"/>
<text text-anchor="middle" x="5462" y="-99.8" font-family="Times,serif" font-size="14.00" fill="#000000">StreamCreateDialogComponent</text>
</g>
<!-- StreamCreateDialogComponent&#45;&gt;StreamsModule -->
<g id="edge5" class="edge">
<title>StreamCreateDialogComponent&#45;&gt;StreamsModule</title>
<path fill="none" stroke="#000000" d="M5462,-122.0449C5462,-143.6623 5462,-177 5462,-177 5462,-177 2944.4122,-177 2944.4122,-177"/>
<polygon fill="#000000" stroke="#000000" points="2944.4122,-173.5001 2934.4122,-177 2944.4121,-180.5001 2944.4122,-173.5001"/>
</g>
<!-- StreamPropertiesDialogComponent -->
<g id="node6" class="node">
<title>StreamPropertiesDialogComponent</title>
<polygon fill="#ffffb3" stroke="#000000" points="5345.8473,-122 5130.1527,-122 5130.1527,-86 5345.8473,-86 5345.8473,-122"/>
<text text-anchor="middle" x="5238" y="-99.8" font-family="Times,serif" font-size="14.00" fill="#000000">StreamPropertiesDialogComponent</text>
</g>
<!-- StreamPropertiesDialogComponent&#45;&gt;StreamsModule -->
<g id="edge6" class="edge">
<title>StreamPropertiesDialogComponent&#45;&gt;StreamsModule</title>
<path fill="none" stroke="#000000" d="M5238,-122.2843C5238,-143.3211 5238,-175 5238,-175 5238,-175 2944.2326,-175 2944.2326,-175"/>
<polygon fill="#000000" stroke="#000000" points="2944.2326,-171.5001 2934.2326,-175 2944.2326,-178.5001 2944.2326,-171.5001"/>
</g>
<!-- NodeComponent -->
<g id="node7" class="node">
<title>NodeComponent</title>
<polygon fill="#ffffb3" stroke="#000000" points="5111.6541,-122 5000.3459,-122 5000.3459,-86 5111.6541,-86 5111.6541,-122"/>
<text text-anchor="middle" x="5056" y="-99.8" font-family="Times,serif" font-size="14.00" fill="#000000">NodeComponent</text>
</g>
<!-- NodeComponent&#45;&gt;StreamsModule -->
<g id="edge7" class="edge">
<title>NodeComponent&#45;&gt;StreamsModule</title>
<path fill="none" stroke="#000000" d="M5056,-122.1289C5056,-142.5724 5056,-173 5056,-173 5056,-173 2944.3947,-173 2944.3947,-173"/>
<polygon fill="#000000" stroke="#000000" points="2944.3947,-169.5001 2934.3947,-173 2944.3947,-176.5001 2944.3947,-169.5001"/>
</g>
<!-- StreamGraphDefinitionComponent -->
<g id="node8" class="node">
<title>StreamGraphDefinitionComponent</title>
<polygon fill="#ffffb3" stroke="#000000" points="4981.5126,-122 4768.4874,-122 4768.4874,-86 4981.5126,-86 4981.5126,-122"/>
<text text-anchor="middle" x="4875" y="-99.8" font-family="Times,serif" font-size="14.00" fill="#000000">StreamGraphDefinitionComponent</text>
</g>
<!-- StreamGraphDefinitionComponent&#45;&gt;StreamsModule -->
<g id="edge8" class="edge">
<title>StreamGraphDefinitionComponent&#45;&gt;StreamsModule</title>
<path fill="none" stroke="#000000" d="M4875,-122.308C4875,-142.1455 4875,-171 4875,-171 4875,-171 2944.2835,-171 2944.2835,-171"/>
<polygon fill="#000000" stroke="#000000" points="2944.2835,-167.5001 2934.2835,-171 2944.2835,-174.5001 2944.2835,-167.5001"/>
</g>
<!-- InstanceDotComponent -->
<g id="node9" class="node">
<title>InstanceDotComponent</title>
<polygon fill="#ffffb3" stroke="#000000" points="4750.4692,-122 4601.5308,-122 4601.5308,-86 4750.4692,-86 4750.4692,-122"/>
<text text-anchor="middle" x="4676" y="-99.8" font-family="Times,serif" font-size="14.00" fill="#000000">InstanceDotComponent</text>
</g>
<!-- InstanceDotComponent&#45;&gt;StreamsModule -->
<g id="edge9" class="edge">
<title>InstanceDotComponent&#45;&gt;StreamsModule</title>
<path fill="none" stroke="#000000" d="M4676,-122.1686C4676,-141.0898 4676,-168 4676,-168 4676,-168 2944.2368,-168 2944.2368,-168"/>
<polygon fill="#000000" stroke="#000000" points="2944.2368,-164.5001 2934.2368,-168 2944.2368,-171.5001 2944.2368,-164.5001"/>
</g>
<!-- MessageRateComponent -->
<g id="node10" class="node">
<title>MessageRateComponent</title>
<polygon fill="#ffffb3" stroke="#000000" points="4583.9664,-122 4428.0336,-122 4428.0336,-86 4583.9664,-86 4583.9664,-122"/>
<text text-anchor="middle" x="4506" y="-99.8" font-family="Times,serif" font-size="14.00" fill="#000000">MessageRateComponent</text>
</g>
<!-- MessageRateComponent&#45;&gt;StreamsModule -->
<g id="edge10" class="edge">
<title>MessageRateComponent&#45;&gt;StreamsModule</title>
<path fill="none" stroke="#000000" d="M4506,-122.2667C4506,-140.5552 4506,-166 4506,-166 4506,-166 2944.1941,-166 2944.1941,-166"/>
<polygon fill="#000000" stroke="#000000" points="2944.1941,-162.5001 2934.1941,-166 2944.194,-169.5001 2944.1941,-162.5001"/>
</g>
<!-- DeploymentPropertiesComponent -->
<g id="node11" class="node">
<title>DeploymentPropertiesComponent</title>
<polygon fill="#ffffb3" stroke="#000000" points="4409.799,-122 4202.201,-122 4202.201,-86 4409.799,-86 4409.799,-122"/>
<text text-anchor="middle" x="4306" y="-99.8" font-family="Times,serif" font-size="14.00" fill="#000000">DeploymentPropertiesComponent</text>
</g>
<!-- DeploymentPropertiesComponent&#45;&gt;StreamsModule -->
<g id="edge11" class="edge">
<title>DeploymentPropertiesComponent&#45;&gt;StreamsModule</title>
<path fill="none" stroke="#000000" d="M4306,-122.002C4306,-139.6754 4306,-164 4306,-164 4306,-164 2944.3697,-164 2944.3697,-164"/>
<polygon fill="#000000" stroke="#000000" points="2944.3698,-160.5001 2934.3697,-164 2944.3697,-167.5001 2944.3698,-160.5001"/>
</g>
<!-- DeploymentPropertiesInfoComponent -->
<g id="node12" class="node">
<title>DeploymentPropertiesInfoComponent</title>
<polygon fill="#ffffb3" stroke="#000000" points="4184.1203,-122 3953.8797,-122 3953.8797,-86 4184.1203,-86 4184.1203,-122"/>
<text text-anchor="middle" x="4069" y="-99.8" font-family="Times,serif" font-size="14.00" fill="#000000">DeploymentPropertiesInfoComponent</text>
</g>
<!-- DeploymentPropertiesInfoComponent&#45;&gt;StreamsModule -->
<g id="edge12" class="edge">
<title>DeploymentPropertiesInfoComponent&#45;&gt;StreamsModule</title>
<path fill="none" stroke="#000000" d="M4069,-122.0336C4069,-139.0597 4069,-162 4069,-162 4069,-162 2944.1507,-162 2944.1507,-162"/>
<polygon fill="#000000" stroke="#000000" points="2944.1507,-158.5001 2934.1507,-162 2944.1507,-165.5001 2944.1507,-158.5001"/>
</g>
<!-- StreamsDeployComponent -->
<g id="node13" class="node">
<title>StreamsDeployComponent</title>
<polygon fill="#ffffb3" stroke="#000000" points="3935.6428,-122 3768.3572,-122 3768.3572,-86 3935.6428,-86 3935.6428,-122"/>
<text text-anchor="middle" x="3852" y="-99.8" font-family="Times,serif" font-size="14.00" fill="#000000">StreamsDeployComponent</text>
</g>
<!-- StreamsDeployComponent&#45;&gt;StreamsModule -->
<g id="edge13" class="edge">
<title>StreamsDeployComponent&#45;&gt;StreamsModule</title>
<path fill="none" stroke="#000000" d="M3852,-122.027C3852,-138.3976 3852,-160 3852,-160 3852,-160 2944.1514,-160 2944.1514,-160"/>
<polygon fill="#000000" stroke="#000000" points="2944.1514,-156.5001 2934.1514,-160 2944.1514,-163.5001 2944.1514,-156.5001"/>
</g>
<!-- StreamDeployAppPropertiesComponent -->
<g id="node14" class="node">
<title>StreamDeployAppPropertiesComponent</title>
<polygon fill="#ffffb3" stroke="#000000" points="3750.5632,-122 3507.4368,-122 3507.4368,-86 3750.5632,-86 3750.5632,-122"/>
<text text-anchor="middle" x="3629" y="-99.8" font-family="Times,serif" font-size="14.00" fill="#000000">StreamDeployAppPropertiesComponent</text>
</g>
<!-- StreamDeployAppPropertiesComponent&#45;&gt;StreamsModule -->
<g id="edge14" class="edge">
<title>StreamDeployAppPropertiesComponent&#45;&gt;StreamsModule</title>
<path fill="none" stroke="#000000" d="M3629,-122.2819C3629,-137.9478 3629,-158 3629,-158 3629,-158 2944.2307,-158 2944.2307,-158"/>
<polygon fill="#000000" stroke="#000000" points="2944.2307,-154.5001 2934.2307,-158 2944.2307,-161.5001 2944.2307,-154.5001"/>
</g>
<!-- StreamDeployPropertiesDebugComponent -->
<g id="node15" class="node">
<title>StreamDeployPropertiesDebugComponent</title>
<polygon fill="#ffffb3" stroke="#000000" points="3489.278,-122 3232.722,-122 3232.722,-86 3489.278,-86 3489.278,-122"/>
<text text-anchor="middle" x="3361" y="-99.8" font-family="Times,serif" font-size="14.00" fill="#000000">StreamDeployPropertiesDebugComponent</text>
</g>
<!-- StreamDeployPropertiesDebugComponent&#45;&gt;StreamsModule -->
<g id="edge15" class="edge">
<title>StreamDeployPropertiesDebugComponent&#45;&gt;StreamsModule</title>
<path fill="none" stroke="#000000" d="M3361,-122.1871C3361,-137.1824 3361,-156 3361,-156 3361,-156 2944.1732,-156 2944.1732,-156"/>
<polygon fill="#000000" stroke="#000000" points="2944.1733,-152.5001 2934.1732,-156 2944.1732,-159.5001 2944.1733,-152.5001"/>
</g>
<!-- StreamDeployFreeTextComponent -->
<g id="node16" class="node">
<title>StreamDeployFreeTextComponent</title>
<polygon fill="#ffffb3" stroke="#000000" points="3214.2282,-122 3001.7718,-122 3001.7718,-86 3214.2282,-86 3214.2282,-122"/>
<text text-anchor="middle" x="3108" y="-99.8" font-family="Times,serif" font-size="14.00" fill="#000000">StreamDeployFreeTextComponent</text>
</g>
<!-- StreamDeployFreeTextComponent&#45;&gt;StreamsModule -->
<g id="edge16" class="edge">
<title>StreamDeployFreeTextComponent&#45;&gt;StreamsModule</title>
<path fill="none" stroke="#000000" d="M3108,-122.0511C3108,-136.373 3108,-154 3108,-154 3108,-154 2944.417,-154 2944.417,-154"/>
<polygon fill="#000000" stroke="#000000" points="2944.417,-150.5001 2934.417,-154 2944.417,-157.5001 2944.417,-150.5001"/>
</g>
<!-- StreamDeployBuilderComponent -->
<g id="node17" class="node">
<title>StreamDeployBuilderComponent</title>
<polygon fill="#ffffb3" stroke="#000000" points="2984.1909,-122 2779.8091,-122 2779.8091,-86 2984.1909,-86 2984.1909,-122"/>
<text text-anchor="middle" x="2882" y="-99.8" font-family="Times,serif" font-size="14.00" fill="#000000">StreamDeployBuilderComponent</text>
</g>
<!-- StreamDeployBuilderComponent&#45;&gt;StreamsModule -->
<g id="edge17" class="edge">
<title>StreamDeployBuilderComponent&#45;&gt;StreamsModule</title>
<path fill="none" stroke="#000000" d="M2882,-122.1061C2882,-122.1061 2882,-140.991 2882,-140.991"/>
<polygon fill="#000000" stroke="#000000" points="2878.5001,-140.9909 2882,-150.991 2885.5001,-140.991 2878.5001,-140.9909"/>
</g>
<!-- StreamGraphComponent -->
<g id="node18" class="node">
<title>StreamGraphComponent</title>
<polygon fill="#ffffb3" stroke="#000000" points="2761.9678,-122 2606.0322,-122 2606.0322,-86 2761.9678,-86 2761.9678,-122"/>
<text text-anchor="middle" x="2684" y="-99.8" font-family="Times,serif" font-size="14.00" fill="#000000">StreamGraphComponent</text>
</g>
<!-- StreamGraphComponent&#45;&gt;StreamsModule -->
<g id="edge18" class="edge">
<title>StreamGraphComponent&#45;&gt;StreamsModule</title>
<path fill="none" stroke="#000000" d="M2684,-122.0511C2684,-136.373 2684,-154 2684,-154 2684,-154 2819.7188,-154 2819.7188,-154"/>
<polygon fill="#000000" stroke="#000000" points="2819.7189,-157.5001 2829.7188,-154 2819.7188,-150.5001 2819.7189,-157.5001"/>
</g>
<!-- StreamSummaryComponent -->
<g id="node19" class="node">
<title>StreamSummaryComponent</title>
<polygon fill="#ffffb3" stroke="#000000" points="2587.9255,-122 2412.0745,-122 2412.0745,-86 2587.9255,-86 2587.9255,-122"/>
<text text-anchor="middle" x="2500" y="-99.8" font-family="Times,serif" font-size="14.00" fill="#000000">StreamSummaryComponent</text>
</g>
<!-- StreamSummaryComponent&#45;&gt;StreamsModule -->
<g id="edge19" class="edge">
<title>StreamSummaryComponent&#45;&gt;StreamsModule</title>
<path fill="none" stroke="#000000" d="M2500,-122.1871C2500,-137.1824 2500,-156 2500,-156 2500,-156 2819.6855,-156 2819.6855,-156"/>
<polygon fill="#000000" stroke="#000000" points="2819.6855,-159.5001 2829.6855,-156 2819.6855,-152.5001 2819.6855,-159.5001"/>
</g>
<!-- StreamStatusComponent -->
<g id="node20" class="node">
<title>StreamStatusComponent</title>
<polygon fill="#ffffb3" stroke="#000000" points="2394.7091,-122 2239.2909,-122 2239.2909,-86 2394.7091,-86 2394.7091,-122"/>
<text text-anchor="middle" x="2317" y="-99.8" font-family="Times,serif" font-size="14.00" fill="#000000">StreamStatusComponent</text>
</g>
<!-- StreamStatusComponent&#45;&gt;StreamsModule -->
<g id="edge20" class="edge">
<title>StreamStatusComponent&#45;&gt;StreamsModule</title>
<path fill="none" stroke="#000000" d="M2317,-122.2819C2317,-137.9478 2317,-158 2317,-158 2317,-158 2819.6065,-158 2819.6065,-158"/>
<polygon fill="#000000" stroke="#000000" points="2819.6065,-161.5001 2829.6065,-158 2819.6064,-154.5001 2819.6065,-161.5001"/>
</g>
<!-- StreamDeployBuilderErrorsComponent -->
<g id="node21" class="node">
<title>StreamDeployBuilderErrorsComponent</title>
<polygon fill="#ffffb3" stroke="#000000" points="2221.6699,-122 1982.3301,-122 1982.3301,-86 2221.6699,-86 2221.6699,-122"/>
<text text-anchor="middle" x="2102" y="-99.8" font-family="Times,serif" font-size="14.00" fill="#000000">StreamDeployBuilderErrorsComponent</text>
</g>
<!-- StreamDeployBuilderErrorsComponent&#45;&gt;StreamsModule -->
<g id="edge21" class="edge">
<title>StreamDeployBuilderErrorsComponent&#45;&gt;StreamsModule</title>
<path fill="none" stroke="#000000" d="M2102,-122.027C2102,-138.3976 2102,-160 2102,-160 2102,-160 2819.6108,-160 2819.6108,-160"/>
<polygon fill="#000000" stroke="#000000" points="2819.6109,-163.5001 2829.6108,-160 2819.6108,-156.5001 2819.6109,-163.5001"/>
</g>
<!-- StreamsUndeployComponent -->
<g id="node22" class="node">
<title>StreamsUndeployComponent</title>
<polygon fill="#ffffb3" stroke="#000000" points="1964.6428,-122 1783.3572,-122 1783.3572,-86 1964.6428,-86 1964.6428,-122"/>
<text text-anchor="middle" x="1874" y="-99.8" font-family="Times,serif" font-size="14.00" fill="#000000">StreamsUndeployComponent</text>
</g>
<!-- StreamsUndeployComponent&#45;&gt;StreamsModule -->
<g id="edge22" class="edge">
<title>StreamsUndeployComponent&#45;&gt;StreamsModule</title>
<path fill="none" stroke="#000000" d="M1874,-122.0336C1874,-139.0597 1874,-162 1874,-162 1874,-162 2819.577,-162 2819.577,-162"/>
<polygon fill="#000000" stroke="#000000" points="2819.577,-165.5001 2829.577,-162 2819.5769,-158.5001 2819.577,-165.5001"/>
</g>
<!-- StreamsDestroyComponent -->
<g id="node23" class="node">
<title>StreamsDestroyComponent</title>
<polygon fill="#ffffb3" stroke="#000000" points="1765.2478,-122 1594.7522,-122 1594.7522,-86 1765.2478,-86 1765.2478,-122"/>
<text text-anchor="middle" x="1680" y="-99.8" font-family="Times,serif" font-size="14.00" fill="#000000">StreamsDestroyComponent</text>
</g>
<!-- StreamsDestroyComponent&#45;&gt;StreamsModule -->
<g id="edge23" class="edge">
<title>StreamsDestroyComponent&#45;&gt;StreamsModule</title>
<path fill="none" stroke="#000000" d="M1680,-122.002C1680,-139.6754 1680,-164 1680,-164 1680,-164 2819.5787,-164 2819.5787,-164"/>
<polygon fill="#000000" stroke="#000000" points="2819.5787,-167.5001 2829.5787,-164 2819.5786,-160.5001 2819.5787,-167.5001"/>
</g>
<!-- StreamsRoutingModule -->
<g id="node25" class="node">
<title>StreamsRoutingModule</title>
<polygon fill="#8dd3c7" stroke="#000000" points="1570.766,-122 1567.766,-126 1546.766,-126 1543.766,-122 1421.234,-122 1421.234,-86 1570.766,-86 1570.766,-122"/>
<text text-anchor="middle" x="1496" y="-99.8" font-family="Times,serif" font-size="14.00" fill="#000000">StreamsRoutingModule</text>
</g>
<!-- StreamsRoutingModule&#45;&gt;StreamsModule -->
<g id="edge24" class="edge">
<title>StreamsRoutingModule&#45;&gt;StreamsModule</title>
<path fill="none" stroke="#000000" d="M1496,-122.2667C1496,-140.5552 1496,-166 1496,-166 1496,-166 2819.7789,-166 2819.7789,-166"/>
<polygon fill="#000000" stroke="#000000" points="2819.779,-169.5001 2829.7789,-166 2819.7789,-162.5001 2819.779,-169.5001"/>
</g>
<!-- SharedModule -->
<g id="node26" class="node">
<title>SharedModule</title>
<polygon fill="#8dd3c7" stroke="#000000" points="1403.4231,-122 1400.4231,-126 1379.4231,-126 1376.4231,-122 1304.5769,-122 1304.5769,-86 1403.4231,-86 1403.4231,-122"/>
<text text-anchor="middle" x="1354" y="-99.8" font-family="Times,serif" font-size="14.00" fill="#000000">SharedModule</text>
</g>
<!-- SharedModule&#45;&gt;StreamsModule -->
<g id="edge25" class="edge">
<title>SharedModule&#45;&gt;StreamsModule</title>
<path fill="none" stroke="#000000" d="M1354,-122.1686C1354,-141.0898 1354,-168 1354,-168 1354,-168 2819.8448,-168 2819.8448,-168"/>
<polygon fill="#000000" stroke="#000000" points="2819.8449,-171.5001 2829.8448,-168 2819.8448,-164.5001 2819.8449,-171.5001"/>
</g>
<!-- AppsModule -->
<g id="node27" class="node">
<title>AppsModule</title>
<polygon fill="#8dd3c7" stroke="#000000" points="1286.6011,-122 1283.6011,-126 1262.6011,-126 1259.6011,-122 1197.3989,-122 1197.3989,-86 1286.6011,-86 1286.6011,-122"/>
<text text-anchor="middle" x="1242" y="-99.8" font-family="Times,serif" font-size="14.00" fill="#000000">AppsModule</text>
</g>
<!-- AppsModule&#45;&gt;StreamsModule -->
<g id="edge26" class="edge">
<title>AppsModule&#45;&gt;StreamsModule</title>
<path fill="none" stroke="#000000" d="M1242,-122.308C1242,-142.1455 1242,-171 1242,-171 1242,-171 2819.7515,-171 2819.7515,-171"/>
<polygon fill="#000000" stroke="#000000" points="2819.7515,-174.5001 2829.7515,-171 2819.7514,-167.5001 2819.7515,-174.5001"/>
</g>
<!-- AuthModule -->
<g id="node28" class="node">
<title>AuthModule</title>
<polygon fill="#8dd3c7" stroke="#000000" points="1179.5482,-122 1176.5482,-126 1155.5482,-126 1152.5482,-122 1092.4518,-122 1092.4518,-86 1179.5482,-86 1179.5482,-122"/>
<text text-anchor="middle" x="1136" y="-99.8" font-family="Times,serif" font-size="14.00" fill="#000000">AuthModule</text>
</g>
<!-- AuthModule&#45;&gt;StreamsModule -->
<g id="edge27" class="edge">
<title>AuthModule&#45;&gt;StreamsModule</title>
<path fill="none" stroke="#000000" d="M1136,-122.1289C1136,-142.5724 1136,-173 1136,-173 1136,-173 2819.7457,-173 2819.7457,-173"/>
<polygon fill="#000000" stroke="#000000" points="2819.7457,-176.5001 2829.7457,-173 2819.7457,-169.5001 2819.7457,-176.5001"/>
</g>
<!-- StreamsService -->
<g id="node29" class="node">
<title>StreamsService</title>
<ellipse fill="#fdb462" stroke="#000000" cx="997" cy="-104" rx="71.1998" ry="18"/>
<text text-anchor="middle" x="997" y="-99.8" font-family="Times,serif" font-size="14.00" fill="#000000">StreamsService</text>
</g>
<!-- StreamsService&#45;&gt;StreamsModule -->
<g id="edge28" class="edge">
<title>StreamsService&#45;&gt;StreamsModule</title>
<path fill="none" stroke="#000000" d="M997,-122.2843C997,-143.3211 997,-175 997,-175 997,-175 2819.6169,-175 2819.6169,-175"/>
<polygon fill="#000000" stroke="#000000" points="2819.617,-178.5001 2829.6169,-175 2819.6169,-171.5001 2819.617,-178.5001"/>
</g>
<!-- MetamodelService -->
<g id="node30" class="node">
<title>MetamodelService</title>
<ellipse fill="#fdb462" stroke="#000000" cx="824" cy="-104" rx="83.945" ry="18"/>
<text text-anchor="middle" x="824" y="-99.8" font-family="Times,serif" font-size="14.00" fill="#000000">MetamodelService</text>
</g>
<!-- MetamodelService&#45;&gt;StreamsModule -->
<g id="edge29" class="edge">
<title>MetamodelService&#45;&gt;StreamsModule</title>
<path fill="none" stroke="#000000" d="M824,-122.0449C824,-143.6623 824,-177 824,-177 824,-177 2819.8397,-177 2819.8397,-177"/>
<polygon fill="#000000" stroke="#000000" points="2819.8397,-180.5001 2829.8397,-177 2819.8397,-173.5001 2819.8397,-180.5001"/>
</g>
<!-- RenderService -->
<g id="node31" class="node">
<title>RenderService</title>
<ellipse fill="#fdb462" stroke="#000000" cx="654" cy="-104" rx="67.7548" ry="18"/>
<text text-anchor="middle" x="654" y="-99.8" font-family="Times,serif" font-size="14.00" fill="#000000">RenderService</text>
</g>
<!-- RenderService&#45;&gt;StreamsModule -->
<g id="edge30" class="edge">
<title>RenderService&#45;&gt;StreamsModule</title>
<path fill="none" stroke="#000000" d="M654,-122.1554C654,-144.3519 654,-179 654,-179 654,-179 2819.6659,-179 2819.6659,-179"/>
<polygon fill="#000000" stroke="#000000" points="2819.666,-182.5001 2829.6659,-179 2819.6659,-175.5001 2819.666,-182.5001"/>
</g>
<!-- EditorService -->
<g id="node32" class="node">
<title>EditorService</title>
<ellipse fill="#fdb462" stroke="#000000" cx="504" cy="-104" rx="64.261" ry="18"/>
<text text-anchor="middle" x="504" y="-99.8" font-family="Times,serif" font-size="14.00" fill="#000000">EditorService</text>
</g>
<!-- EditorService&#45;&gt;StreamsModule -->
<g id="edge31" class="edge">
<title>EditorService&#45;&gt;StreamsModule</title>
<path fill="none" stroke="#000000" d="M504,-122.2479C504,-145.0179 504,-181 504,-181 504,-181 2819.841,-181 2819.841,-181"/>
<polygon fill="#000000" stroke="#000000" points="2819.841,-184.5001 2829.841,-181 2819.8409,-177.5001 2819.841,-184.5001"/>
</g>
<!-- ContentAssistService -->
<g id="node33" class="node">
<title>ContentAssistService</title>
<ellipse fill="#fdb462" stroke="#000000" cx="328" cy="-104" rx="94.3543" ry="18"/>
<text text-anchor="middle" x="328" y="-99.8" font-family="Times,serif" font-size="14.00" fill="#000000">ContentAssistService</text>
</g>
<!-- ContentAssistService&#45;&gt;StreamsModule -->
<g id="edge32" class="edge">
<title>ContentAssistService&#45;&gt;StreamsModule</title>
<path fill="none" stroke="#000000" d="M328,-122.3228C328,-145.6602 328,-183 328,-183 328,-183 2819.8255,-183 2819.8255,-183"/>
<polygon fill="#000000" stroke="#000000" points="2819.8256,-186.5001 2829.8255,-183 2819.8255,-179.5001 2819.8256,-186.5001"/>
</g>
<!-- StreamDeployService -->
<g id="node34" class="node">
<title>StreamDeployService</title>
<ellipse fill="#fdb462" stroke="#000000" cx="120" cy="-104" rx="95.5433" ry="18"/>
<text text-anchor="middle" x="120" y="-99.8" font-family="Times,serif" font-size="14.00" fill="#000000">StreamDeployService</text>
</g>
<!-- StreamDeployService&#45;&gt;StreamsModule -->
<g id="edge33" class="edge">
<title>StreamDeployService&#45;&gt;StreamsModule</title>
<path fill="none" stroke="#000000" d="M120,-122.3802C120,-146.2785 120,-185 120,-185 120,-185 2819.596,-185 2819.596,-185"/>
<polygon fill="#000000" stroke="#000000" points="2819.596,-188.5001 2829.596,-185 2819.5959,-181.5001 2819.596,-188.5001"/>
</g>
</g>
</svg>
